<?xml version="1.0" encoding="utf-8"?>
<!-- Generator: Adobe Illustrator 22.1.0, SVG Export Plug-In . SVG Version: 6.00 Build 0)  -->
<svg version="1.1" id="Layer_1" xmlns="http://www.w3.org/2000/svg" xmlns:xlink="http://www.w3.org/1999/xlink" x="0px" y="0px"
	 viewBox="0 0 512 512" style="enable-background:new 0 0 512 512;" xml:space="preserve">
<style type="text/css">
	.st0{fill:#575654;}
	.st1{fill:none;}
	.st2{fill:#45BBE1;}
	.st3{font-family:'MyriadPro-Regular';}
	.st4{font-size:419.7594px;}
</style>
<path class="st0" d="M526.6,221.2l-15.9-63l-64.5-6.1c-9.8-18-22.1-34.2-36.2-48.4l0.1-0.1l12.7-63.5L366.9,6.8L317,48.1l-0.1,0.1
	c-19.2-5.7-39.3-8.7-59.8-8.9l-36-53.9l-63,15.9l-6.1,64.5c-18,9.8-34.2,22.1-48.4,36.2l-0.1-0.1L40.1,89.3L6.8,145.1L48.1,195
	l0.1,0.1c-5.7,19.2-8.8,39.3-8.9,59.8l-53.9,36l15.9,63l64.5,6.1c9.8,18,22.1,34.2,36.2,48.4l-0.1,0.1l-12.7,63.5l55.8,33.3
	l49.9-41.3l0.1-0.1c19.2,5.7,39.3,8.7,59.8,8.9l36,53.9l63-15.9l6.1-64.5c18-9.8,34.2-22.1,48.4-36.2l0.1,0.1l63.5,12.7l33.3-55.8
	L463.9,317l-0.1-0.1c5.7-19.2,8.7-39.3,8.9-59.8L526.6,221.2z M282.5,361c-58,14.7-116.9-20.5-131.6-78.5
	c-14.7-58,20.5-116.9,78.5-131.6s116.9,20.5,131.6,78.5S340.5,346.4,282.5,361z"/>
<rect x="86" y="131" class="st1" width="246" height="238"/>
<rect x="227.7" y="183.6" class="st1" width="299" height="331.7"/>
<text transform="matrix(1 0 0 1 227.7026 481.6456)" class="st2 st3 st4">A</text>
<g>
	<path class="st2" d="M294.2,124.2c-71.1-27.4-167.5,25.2-180,104.5c-13.1,83.2,40.8,149.9,119.7,162c34,5.2,47,4.2,77.9-1.8
		c-2.8-10.3-2.4-19.7-3.9-29.9c-20,6.3-39.9,4.7-60.4,2.5c-63.6-6.9-103.6-66.1-95.9-124.6c8.3-62.7,80.5-101.5,134.3-83.5
		c8.9,3,16.7,7.3,24,12.3l13.4-28.3C315.5,133,306.6,129,294.2,124.2z"/>
</g>
</svg>
